#!OML:ASF F:\VICON\USERDATA\INSTALL\rory3\rory3.ASF
:FULLY-SPECIFIED
:DEGREES
50
root -0.29393 17.3156 -2.29285 2.69681 -5.13552 -4.42352
lowerback 17.3324 -1.98153 4.25558
upperback 2.52025 -1.64071 2.3895
thorax -7.05363 -0.878247 0.524421
lowerneck -2.85103 2.62198 0.765521
upperneck -12.406 3.2464 -2.76467
head -3.44066 1.66643 -1.10204
rclavicle -1.09332e-014 -5.96354e-016
rhumerus -36.1895 10.4066 -83.9581
rradius 88.648
rwrist 2.38496
rhand -42.5548 34.7973
rfingers 7.12502
rthumb -15.4295 5.39316
lclavicle -1.09332e-014 -5.96354e-016
lhumerus -48.0428 -11.7782 92.6353
lradius 99.0286
lwrist 26.0894
lhand -40.3398 12.8804
lfingers 7.12502
lthumb -13.2953 42.4364
rfemur -19.059 7.94009 31.7107
rtibia 42.1913
rfoot -15.4496 -9.78624
rtoes 4.24282
lfemur -10.761 13.1103 -7.74308
ltibia 110.063
lfoot 23.9684 -10.9161
ltoes -1.84536
51
root -0.302122 17.2701 -1.82266 2.79658 -4.5073 -4.37374
lowerback 17.4431 -2.10297 4.31179
upperback 2.49107 -1.78144 2.37145
thorax -7.15128 -0.948456 0.511124
lowerneck -2.45633 2.67327 0.738312
upperneck -12.8234 3.31323 -2.74592
head -3.66084 1.70411 -1.10903
rclavicle -1.19271e-015 -4.59193e-014
rhumerus -33.95 11.1433 -84.1646
rradius 89.3593
rwrist 2.60149
rhand -43.0016 35.1372
rfingers 7.12502
rthumb -15.8599 5.76673
lclavicle -1.19271e-015 -4.59193e-014
lhumerus -49.2679 -10.7576 92.7113
lradius 98.2096
lwrist 27.1627
lhand -41.2982 16.3512
lfingers 7.12502
lthumb -14.2189 45.8445
rfemur -17.3809 7.30333 31.771
rtibia 42.0941
rfoot -16.3725 -10.29
rtoes 2.07689
lfemur -14.6044 13.0668 -7.68691
ltibia 112.549
lfoot 23.0532 -11.783
ltoes 0.795968
52
root -0.311436 17.2552 -1.33193 3.00732 -3.98206 -4.37533
lowerback 17.4116 -2.08027 4.33316
upperback 2.32828 -1.73683 2.42995
thorax -7.30805 -0.92915 0.554932
lowerneck -2.03296 2.50951 0.66742
upperneck -12.8563 3.09369 -2.74236
head -3.75794 1.60135 -1.09998
rclavicle 9.34288e-015 -1.53064e-014
rhumerus -32.1973 11.6751 -84.1431
rradius 90.2555
rwrist 2.82919
rhand -42.9956 35.7096
rfingers 7.12502
rthumb -15.8541 6.33871
lclavicle 9.34288e-015 -1.53064e-014
lhumerus -50.6362 -10.1683 92.9908
lradius 97.6448
lwrist 28.6364
lhand -42.4791 20.1274
lfingers 7.12502
lthumb -15.3566 49.5371
rfemur -15.8031 6.79403 31.9354
rtibia 41.9125
rfoot -16.9441 -10.9667
rtoes -0.0938881
lfemur -18.731 13.0902 -7.87591
ltibia 114.4
lfoot 21.8408 -12.495
ltoes -0.881605
53
root -0.321922 17.251 -0.827897 3.03967 -3.51177 -4.72299
lowerback 17.5357 -1.96881 4.62042
upperback 2.20536 -1.50934 2.57568
thorax -7.50711 -0.828029 0.503234
lowerneck -1.88378 2.23444 0.708655
upperneck -12.6486 2.72464 -2.77748
head -3.71878 1.41853 -1.10884
rclavicle 2.28602e-015 -2.3059e-014
rhumerus -30.7713 11.9446 -83.9898
rradius 91.3426
rwrist 3.13708
rhand -42.5378 36.0977
rfingers 7.12502
rthumb -15.4132 6.6923
lclavicle 2.28602e-015 -2.3059e-014
lhumerus -51.7862 -9.85792 93.3184
lradius 97.2555
lwrist 30.5068
lhand -42.2572 17.2951
lfingers 7.12502
lthumb -15.1429 46.7211
rfemur -13.7725 6.43581 32.5278
rtibia 41.4583
rfoot -17.4301 -11.5755
rtoes -2.30672
lfemur -22.2619 13.166 -7.59259
ltibia 115.637
lfoot 20.5971 -13.0861
ltoes -2.41133
54
root -0.328325 17.255 -0.319726 3.08301 -3.05364 -4.95943
lowerback 17.4986 -1.80607 4.81574
upperback 2.1788 -1.24961 2.68854
thorax -7.51022 -0.706804 0.451817
lowerneck -2.35254 2.02512 0.838226
upperneck -12.0559 2.44309 -2.89855
head -3.42509 1.27325 -1.14594
rclavicle 1.38155e-014 -1.19271e-014
rhumerus -29.4311 12.1205 -83.7814
rradius 92.7296
rwrist 3.31398
rhand -42.3896 36.1699
rfingers 7.12502
rthumb -15.2705 6.75356
lclavicle 1.38155e-014 -1.19271e-014
lhumerus -52.7615 -9.83785 93.6573
lradius 97.2186
lwrist 32.6542
lhand -41.3545 12.2408
lfingers 7.12502
lthumb -14.2732 41.7302
rfemur -11.5237 6.102 32.918
rtibia 40.7649
rfoot -18.104 -11.7498
rtoes -5.10309
lfemur -25.9095 12.9261 -7.85409
ltibia 116.3
lfoot 20.4852 -13.3418
ltoes -0.710165
55
root -0.319537 17.2899 0.200557 3.20898 -2.39559 -4.66235
lowerback 17.1902 -1.71229 4.82145
upperback 2.1727 -1.15434 2.58236
thorax -7.34709 -0.660135 0.303004
lowerneck -3.07237 1.78037 0.98691
upperneck -11.189 2.11849 -3.02236
head -2.99722 1.10208 -1.18004
rclavicle 3.70733e-014 -3.53837e-014
rhumerus -28.2087 12.3087 -83.5979
rradius 94.0179
rwrist 3.32679
rhand -42.8123 37.1848
rfingers 7.12502
rthumb -15.6776 7.79998
lclavicle 3.70733e-014 -3.53837e-014
lhumerus -53.6369 -9.96059 94.0431
lradius 97.3472
lwrist 34.4443
lhand -40.3732 8.34724
lfingers 7.12502
lthumb -13.3275 37.901
rfemur -9.21348 5.25769 32.5898
rtibia 39.8132
rfoot -18.6372 -11.3122
rtoes -9.45923
lfemur -29.9407 11.8572 -9.47709
ltibia 116.296
lfoot 21.6122 -13.2033
ltoes 4.74049
56
root -0.311948 17.318 0.70792 3.31449 -2.52513 -4.72719
lowerback 17.2507 -1.32272 5.07703
upperback 2.00211 -0.589957 2.46889
thorax -7.55057 -0.401569 -0.0907554
lowerneck -3.43317 1.41679 1.21335
upperneck -10.3635 1.63713 -3.12114
head -2.66111 0.850876 -1.22715
rclavicle -2.18663e-014 1.55052e-014
rhumerus -27.2268 12.5025 -83.4434
rradius 95.0921
rwrist 3.28611
rhand -42.9397 37.3448
rfingers 7.12502
rthumb -15.8003 7.96964
lclavicle -2.18663e-014 1.55052e-014
lhumerus -54.6719 -10.3554 94.3747
lradius 97.5461
lwrist 35.8683
lhand -39.8076 6.21019
lfingers 7.12502
lthumb -12.7823 35.7989
rfemur -6.85254 5.03985 32.6267
rtibia 38.6641
rfoot -18.4165 -10.3479
rtoes -13.2258
lfemur -32.1457 11.7273 -10.0674
ltibia 115.639
lfoot 15.9071 -12.3244
ltoes -11.4342
57
root -0.324956 17.3681 1.22067 3.55126 -4.0694 -5.15695
lowerback 17.5773 -0.389233 5.00965
upperback 1.53918 0.671073 2.45893
thorax -8.18305 0.189804 -0.35521
lowerneck -3.26069 1.0493 1.20853
upperneck -9.35868 1.18512 -2.88318
head -2.36755 0.617213 -1.1335
rclavicle -7.65321e-015 -4.41302e-014
rhumerus -26.9155 12.9041 -83.4096
rradius 96.5602
rwrist 2.95066
rhand -42.6429 36.4461
rfingers 7.12502
rthumb -15.5145 7.04852
lclavicle -7.65321e-015 -4.41302e-014
lhumerus -56.136 -10.6474 94.6711
lradius 97.892
lwrist 36.7499
lhand -40.1465 6.39578
lfingers 7.12502
lthumb -13.109 35.9638
rfemur -4.42873 6.08868 32.9673
rtibia 37.2459
rfoot -17.0894 -9.12767
rtoes -14.5495
lfemur -34.2501 13.1911 -10.0112
ltibia 114.532
lfoot 14.6788 -12.3956
ltoes -9.96707
58
root -0.338287 17.443 1.7564 3.93748 -5.62177 -5.54334
lowerback 17.3271 0.557321 4.92477
upperback 1.16838 1.89441 2.36279
thorax -8.39507 0.769023 -0.702337
lowerneck -3.07473 0.756551 1.22851
upperneck -8.42998 0.838173 -2.5018
head -2.10232 0.433254 -1.00339
rclavicle -2.74323e-014 -2.8625e-014
rhumerus -26.9367 12.962 -83.582
rradius 98.1726
rwrist 2.62486
rhand -42.3257 35.3959
rfingers 7.12502
rthumb -15.2089 5.97488
lclavicle -2.74323e-014 -2.8625e-014
lhumerus -57.4634 -10.9555 94.784
lradius 98.2596
lwrist 36.952
lhand -40.8544 9.70692
lfingers 7.12502
lthumb -13.7913 39.2298
rfemur -2.03143 7.19586 33.1635
rtibia 35.6567
rfoot -15.2171 -7.85982
rtoes -15.211
lfemur -36.1539 14.4084 -10.1662
ltibia 112.864
lfoot 13.4885 -12.1988
ltoes -8.70772
